<mxfile host="app.diagrams.net" modified="2024-05-07T04:23:30.046Z" agent="Mozilla/5.0 (Macintosh; Intel Mac OS X 10_15_7) AppleWebKit/537.36 (KHTML, like Gecko) Chrome/123.0.0.0 Safari/537.36" etag="Zz4-7X8Tj-taGvlUwKG1" version="24.3.1" type="device">
  <diagram id="C5RBs43oDa-KdzZeNtuy" name="Page-1">
    <mxGraphModel dx="828" dy="523" grid="1" gridSize="10" guides="1" tooltips="1" connect="1" arrows="1" fold="1" page="1" pageScale="1" pageWidth="827" pageHeight="1169" math="1" shadow="0">
      <root>
        <mxCell id="WIyWlLk6GJQsqaUBKTNV-0" />
        <mxCell id="WIyWlLk6GJQsqaUBKTNV-1" parent="WIyWlLk6GJQsqaUBKTNV-0" />
        <mxCell id="mFVgC_a7lOUEPspSMt6H-16" value="" style="edgeStyle=orthogonalEdgeStyle;rounded=0;orthogonalLoop=1;jettySize=auto;html=1;" parent="WIyWlLk6GJQsqaUBKTNV-1" source="mFVgC_a7lOUEPspSMt6H-13" target="mFVgC_a7lOUEPspSMt6H-15" edge="1">
          <mxGeometry relative="1" as="geometry" />
        </mxCell>
        <mxCell id="mFVgC_a7lOUEPspSMt6H-13" value="Initialization of parameters of similated annealing" style="whiteSpace=wrap;html=1;rounded=1;" parent="WIyWlLk6GJQsqaUBKTNV-1" vertex="1">
          <mxGeometry x="155" y="40" width="120" height="60" as="geometry" />
        </mxCell>
        <mxCell id="mFVgC_a7lOUEPspSMt6H-18" value="" style="edgeStyle=orthogonalEdgeStyle;rounded=0;orthogonalLoop=1;jettySize=auto;html=1;" parent="WIyWlLk6GJQsqaUBKTNV-1" source="mFVgC_a7lOUEPspSMt6H-15" target="mFVgC_a7lOUEPspSMt6H-17" edge="1">
          <mxGeometry relative="1" as="geometry" />
        </mxCell>
        <mxCell id="mFVgC_a7lOUEPspSMt6H-15" value="calculate the initial solution of \(C_{max}(x)\)" style="whiteSpace=wrap;html=1;rounded=1;" parent="WIyWlLk6GJQsqaUBKTNV-1" vertex="1">
          <mxGeometry x="155" y="130" width="120" height="60" as="geometry" />
        </mxCell>
        <mxCell id="vGRUHnTKozFpNwOfr-AK-51" style="edgeStyle=orthogonalEdgeStyle;rounded=0;orthogonalLoop=1;jettySize=auto;html=1;entryX=0;entryY=0.5;entryDx=0;entryDy=0;" parent="WIyWlLk6GJQsqaUBKTNV-1" source="mFVgC_a7lOUEPspSMt6H-17" target="WksAsrJl7JaoRQt0sNs6-0" edge="1">
          <mxGeometry relative="1" as="geometry" />
        </mxCell>
        <mxCell id="mFVgC_a7lOUEPspSMt6H-17" value="generate a new solution of \(C_{max}\)&amp;nbsp;and its \(\Delta E= x_{new}-x\)" style="whiteSpace=wrap;html=1;rounded=1;direction=west;" parent="WIyWlLk6GJQsqaUBKTNV-1" vertex="1">
          <mxGeometry x="155" y="220" width="120" height="60" as="geometry" />
        </mxCell>
        <mxCell id="vGRUHnTKozFpNwOfr-AK-52" style="edgeStyle=orthogonalEdgeStyle;rounded=0;orthogonalLoop=1;jettySize=auto;html=1;entryX=0;entryY=0.5;entryDx=0;entryDy=0;" parent="WIyWlLk6GJQsqaUBKTNV-1" source="WksAsrJl7JaoRQt0sNs6-0" target="WksAsrJl7JaoRQt0sNs6-2" edge="1">
          <mxGeometry relative="1" as="geometry" />
        </mxCell>
        <mxCell id="vGRUHnTKozFpNwOfr-AK-53" value="NO" style="edgeLabel;html=1;align=center;verticalAlign=middle;resizable=0;points=[];" parent="vGRUHnTKozFpNwOfr-AK-52" vertex="1" connectable="0">
          <mxGeometry x="-0.0617" y="1" relative="1" as="geometry">
            <mxPoint as="offset" />
          </mxGeometry>
        </mxCell>
        <mxCell id="vGRUHnTKozFpNwOfr-AK-55" value="" style="edgeStyle=orthogonalEdgeStyle;rounded=0;orthogonalLoop=1;jettySize=auto;html=1;" parent="WIyWlLk6GJQsqaUBKTNV-1" source="WksAsrJl7JaoRQt0sNs6-0" target="WksAsrJl7JaoRQt0sNs6-7" edge="1">
          <mxGeometry relative="1" as="geometry" />
        </mxCell>
        <mxCell id="9aWNYREooH2YM8A3fIOk-0" value="Yes&lt;div&gt;&lt;br&gt;&lt;/div&gt;" style="edgeLabel;html=1;align=center;verticalAlign=middle;resizable=0;points=[];" parent="vGRUHnTKozFpNwOfr-AK-55" vertex="1" connectable="0">
          <mxGeometry x="-0.2262" y="-1" relative="1" as="geometry">
            <mxPoint x="1" y="7" as="offset" />
          </mxGeometry>
        </mxCell>
        <mxCell id="WksAsrJl7JaoRQt0sNs6-0" value="\(\Delta E \) &amp;lt; 0" style="rhombus;whiteSpace=wrap;html=1;rounded=1;" parent="WIyWlLk6GJQsqaUBKTNV-1" vertex="1">
          <mxGeometry x="325" y="40" width="100" height="80" as="geometry" />
        </mxCell>
        <mxCell id="9aWNYREooH2YM8A3fIOk-1" value="" style="edgeStyle=orthogonalEdgeStyle;rounded=0;orthogonalLoop=1;jettySize=auto;html=1;" parent="WIyWlLk6GJQsqaUBKTNV-1" source="WksAsrJl7JaoRQt0sNs6-2" target="WksAsrJl7JaoRQt0sNs6-5" edge="1">
          <mxGeometry relative="1" as="geometry" />
        </mxCell>
        <mxCell id="WksAsrJl7JaoRQt0sNs6-2" value="Compute\(p = exp(- \Delta E / T)&amp;nbsp;\) and generate a random number \(r\) in range [0,1)&amp;nbsp;" style="whiteSpace=wrap;html=1;rounded=1;" parent="WIyWlLk6GJQsqaUBKTNV-1" vertex="1">
          <mxGeometry x="495" y="40" width="120" height="80" as="geometry" />
        </mxCell>
        <mxCell id="9aWNYREooH2YM8A3fIOk-2" value="" style="edgeStyle=orthogonalEdgeStyle;rounded=0;orthogonalLoop=1;jettySize=auto;html=1;" parent="WIyWlLk6GJQsqaUBKTNV-1" source="WksAsrJl7JaoRQt0sNs6-5" target="WksAsrJl7JaoRQt0sNs6-7" edge="1">
          <mxGeometry relative="1" as="geometry" />
        </mxCell>
        <mxCell id="9aWNYREooH2YM8A3fIOk-15" value="Yes" style="edgeLabel;html=1;align=center;verticalAlign=middle;resizable=0;points=[];" parent="9aWNYREooH2YM8A3fIOk-2" vertex="1" connectable="0">
          <mxGeometry x="-0.32" relative="1" as="geometry">
            <mxPoint as="offset" />
          </mxGeometry>
        </mxCell>
        <mxCell id="9aWNYREooH2YM8A3fIOk-5" value="" style="edgeStyle=orthogonalEdgeStyle;rounded=0;orthogonalLoop=1;jettySize=auto;html=1;" parent="WIyWlLk6GJQsqaUBKTNV-1" source="WksAsrJl7JaoRQt0sNs6-5" target="9aWNYREooH2YM8A3fIOk-4" edge="1">
          <mxGeometry relative="1" as="geometry" />
        </mxCell>
        <mxCell id="9aWNYREooH2YM8A3fIOk-14" value="No" style="edgeLabel;html=1;align=center;verticalAlign=middle;resizable=0;points=[];" parent="9aWNYREooH2YM8A3fIOk-5" vertex="1" connectable="0">
          <mxGeometry x="-0.6678" relative="1" as="geometry">
            <mxPoint as="offset" />
          </mxGeometry>
        </mxCell>
        <mxCell id="WksAsrJl7JaoRQt0sNs6-5" value="\(r &amp;lt; p\)" style="rhombus;whiteSpace=wrap;html=1;rounded=1;" parent="WIyWlLk6GJQsqaUBKTNV-1" vertex="1">
          <mxGeometry x="515" y="170" width="80" height="80" as="geometry" />
        </mxCell>
        <mxCell id="WksAsrJl7JaoRQt0sNs6-7" value="Accept the new solution \(x\) and update the schedule map" style="whiteSpace=wrap;html=1;rounded=1;" parent="WIyWlLk6GJQsqaUBKTNV-1" vertex="1">
          <mxGeometry x="315" y="180" width="120" height="60" as="geometry" />
        </mxCell>
        <mxCell id="VuKZPy3ZX8ouI7lNRXXI-2" style="edgeStyle=orthogonalEdgeStyle;rounded=0;orthogonalLoop=1;jettySize=auto;html=1;entryX=0.5;entryY=0;entryDx=0;entryDy=0;" parent="WIyWlLk6GJQsqaUBKTNV-1" source="WksAsrJl7JaoRQt0sNs6-14" target="WksAsrJl7JaoRQt0sNs6-20" edge="1">
          <mxGeometry relative="1" as="geometry" />
        </mxCell>
        <mxCell id="WksAsrJl7JaoRQt0sNs6-14" value="Decrese temperature T" style="whiteSpace=wrap;html=1;rounded=1;" parent="WIyWlLk6GJQsqaUBKTNV-1" vertex="1">
          <mxGeometry x="318.75" y="260" width="120" height="60" as="geometry" />
        </mxCell>
        <mxCell id="9aWNYREooH2YM8A3fIOk-13" style="edgeStyle=orthogonalEdgeStyle;rounded=0;orthogonalLoop=1;jettySize=auto;html=1;entryX=0.5;entryY=0;entryDx=0;entryDy=0;" parent="WIyWlLk6GJQsqaUBKTNV-1" source="WksAsrJl7JaoRQt0sNs6-20" target="mFVgC_a7lOUEPspSMt6H-17" edge="1">
          <mxGeometry relative="1" as="geometry" />
        </mxCell>
        <mxCell id="9aWNYREooH2YM8A3fIOk-17" value="No" style="edgeLabel;html=1;align=center;verticalAlign=middle;resizable=0;points=[];" parent="9aWNYREooH2YM8A3fIOk-13" vertex="1" connectable="0">
          <mxGeometry x="-0.4759" y="2" relative="1" as="geometry">
            <mxPoint as="offset" />
          </mxGeometry>
        </mxCell>
        <mxCell id="VuKZPy3ZX8ouI7lNRXXI-3" value="" style="edgeStyle=orthogonalEdgeStyle;rounded=0;orthogonalLoop=1;jettySize=auto;html=1;" parent="WIyWlLk6GJQsqaUBKTNV-1" source="WksAsrJl7JaoRQt0sNs6-20" target="WksAsrJl7JaoRQt0sNs6-23" edge="1">
          <mxGeometry relative="1" as="geometry" />
        </mxCell>
        <mxCell id="VuKZPy3ZX8ouI7lNRXXI-4" value="Yes" style="edgeLabel;html=1;align=center;verticalAlign=middle;resizable=0;points=[];" parent="VuKZPy3ZX8ouI7lNRXXI-3" vertex="1" connectable="0">
          <mxGeometry x="-0.379" relative="1" as="geometry">
            <mxPoint y="3" as="offset" />
          </mxGeometry>
        </mxCell>
        <mxCell id="WksAsrJl7JaoRQt0sNs6-20" value="\(T&amp;lt;= T_{end}&amp;nbsp; &amp;nbsp;\)" style="rhombus;whiteSpace=wrap;html=1;rounded=1;" parent="WIyWlLk6GJQsqaUBKTNV-1" vertex="1">
          <mxGeometry x="315" y="350" width="127.5" height="80" as="geometry" />
        </mxCell>
        <mxCell id="WksAsrJl7JaoRQt0sNs6-23" value="get the first best scheule \(S\)" style="whiteSpace=wrap;html=1;rounded=1;direction=south;" parent="WIyWlLk6GJQsqaUBKTNV-1" vertex="1">
          <mxGeometry x="327.82" y="470" width="101.87" height="60" as="geometry" />
        </mxCell>
        <mxCell id="vGRUHnTKozFpNwOfr-AK-2" value="" style="edgeStyle=orthogonalEdgeStyle;rounded=0;orthogonalLoop=1;jettySize=auto;html=1;" parent="WIyWlLk6GJQsqaUBKTNV-1" source="vGRUHnTKozFpNwOfr-AK-48" target="vGRUHnTKozFpNwOfr-AK-5" edge="1">
          <mxGeometry relative="1" as="geometry" />
        </mxCell>
        <mxCell id="vGRUHnTKozFpNwOfr-AK-4" value="" style="edgeStyle=orthogonalEdgeStyle;rounded=0;orthogonalLoop=1;jettySize=auto;html=1;" parent="WIyWlLk6GJQsqaUBKTNV-1" source="vGRUHnTKozFpNwOfr-AK-5" edge="1">
          <mxGeometry relative="1" as="geometry">
            <mxPoint x="215" y="1330" as="targetPoint" />
          </mxGeometry>
        </mxCell>
        <mxCell id="vGRUHnTKozFpNwOfr-AK-5" value="generate a random number g in (0, 100) and a in (0,n)" style="whiteSpace=wrap;html=1;rounded=1;" parent="WIyWlLk6GJQsqaUBKTNV-1" vertex="1">
          <mxGeometry x="155" y="1190" width="120" height="60" as="geometry" />
        </mxCell>
        <mxCell id="vGRUHnTKozFpNwOfr-AK-6" value="" style="edgeStyle=orthogonalEdgeStyle;rounded=0;orthogonalLoop=1;jettySize=auto;html=1;" parent="WIyWlLk6GJQsqaUBKTNV-1" source="vGRUHnTKozFpNwOfr-AK-8" target="vGRUHnTKozFpNwOfr-AK-10" edge="1">
          <mxGeometry relative="1" as="geometry" />
        </mxCell>
        <mxCell id="vGRUHnTKozFpNwOfr-AK-7" value="" style="edgeStyle=orthogonalEdgeStyle;rounded=0;orthogonalLoop=1;jettySize=auto;html=1;" parent="WIyWlLk6GJQsqaUBKTNV-1" source="vGRUHnTKozFpNwOfr-AK-8" target="vGRUHnTKozFpNwOfr-AK-16" edge="1">
          <mxGeometry relative="1" as="geometry" />
        </mxCell>
        <mxCell id="vGRUHnTKozFpNwOfr-AK-8" value="g&amp;lt;50" style="rhombus;whiteSpace=wrap;html=1;" parent="WIyWlLk6GJQsqaUBKTNV-1" vertex="1">
          <mxGeometry x="175" y="1330" width="80" height="80" as="geometry" />
        </mxCell>
        <mxCell id="vGRUHnTKozFpNwOfr-AK-9" value="" style="edgeStyle=orthogonalEdgeStyle;rounded=0;orthogonalLoop=1;jettySize=auto;html=1;" parent="WIyWlLk6GJQsqaUBKTNV-1" source="vGRUHnTKozFpNwOfr-AK-10" target="vGRUHnTKozFpNwOfr-AK-12" edge="1">
          <mxGeometry relative="1" as="geometry" />
        </mxCell>
        <mxCell id="vGRUHnTKozFpNwOfr-AK-10" value="l=max(0,a-10)&lt;div&gt;r=min(n,a+10)&lt;/div&gt;" style="whiteSpace=wrap;html=1;" parent="WIyWlLk6GJQsqaUBKTNV-1" vertex="1">
          <mxGeometry x="35" y="1450" width="120" height="60" as="geometry" />
        </mxCell>
        <mxCell id="vGRUHnTKozFpNwOfr-AK-11" value="" style="edgeStyle=orthogonalEdgeStyle;rounded=0;orthogonalLoop=1;jettySize=auto;html=1;" parent="WIyWlLk6GJQsqaUBKTNV-1" source="vGRUHnTKozFpNwOfr-AK-12" target="vGRUHnTKozFpNwOfr-AK-14" edge="1">
          <mxGeometry relative="1" as="geometry" />
        </mxCell>
        <mxCell id="vGRUHnTKozFpNwOfr-AK-12" value="generate a random number b in (l, r)" style="whiteSpace=wrap;html=1;" parent="WIyWlLk6GJQsqaUBKTNV-1" vertex="1">
          <mxGeometry x="35" y="1590" width="120" height="60" as="geometry" />
        </mxCell>
        <mxCell id="vGRUHnTKozFpNwOfr-AK-13" value="" style="edgeStyle=orthogonalEdgeStyle;rounded=0;orthogonalLoop=1;jettySize=auto;html=1;" parent="WIyWlLk6GJQsqaUBKTNV-1" source="vGRUHnTKozFpNwOfr-AK-14" target="vGRUHnTKozFpNwOfr-AK-24" edge="1">
          <mxGeometry relative="1" as="geometry" />
        </mxCell>
        <mxCell id="vGRUHnTKozFpNwOfr-AK-14" value="Snew = swap part on index a and in S" style="whiteSpace=wrap;html=1;" parent="WIyWlLk6GJQsqaUBKTNV-1" vertex="1">
          <mxGeometry x="35" y="1730" width="120" height="60" as="geometry" />
        </mxCell>
        <mxCell id="vGRUHnTKozFpNwOfr-AK-15" value="" style="edgeStyle=orthogonalEdgeStyle;rounded=0;orthogonalLoop=1;jettySize=auto;html=1;" parent="WIyWlLk6GJQsqaUBKTNV-1" source="vGRUHnTKozFpNwOfr-AK-16" target="vGRUHnTKozFpNwOfr-AK-18" edge="1">
          <mxGeometry relative="1" as="geometry" />
        </mxCell>
        <mxCell id="vGRUHnTKozFpNwOfr-AK-16" value="l=max(0,a-10)&lt;div&gt;r=min(n,a+10)&lt;/div&gt;" style="whiteSpace=wrap;html=1;" parent="WIyWlLk6GJQsqaUBKTNV-1" vertex="1">
          <mxGeometry x="298" y="1450" width="120" height="60" as="geometry" />
        </mxCell>
        <mxCell id="vGRUHnTKozFpNwOfr-AK-17" value="" style="edgeStyle=orthogonalEdgeStyle;rounded=0;orthogonalLoop=1;jettySize=auto;html=1;" parent="WIyWlLk6GJQsqaUBKTNV-1" source="vGRUHnTKozFpNwOfr-AK-18" target="vGRUHnTKozFpNwOfr-AK-20" edge="1">
          <mxGeometry relative="1" as="geometry" />
        </mxCell>
        <mxCell id="vGRUHnTKozFpNwOfr-AK-18" value="l=max(0,a-10)&lt;div&gt;r=min(n,a+10)&lt;/div&gt;" style="whiteSpace=wrap;html=1;" parent="WIyWlLk6GJQsqaUBKTNV-1" vertex="1">
          <mxGeometry x="298" y="1590" width="120" height="60" as="geometry" />
        </mxCell>
        <mxCell id="vGRUHnTKozFpNwOfr-AK-19" value="" style="edgeStyle=orthogonalEdgeStyle;rounded=0;orthogonalLoop=1;jettySize=auto;html=1;" parent="WIyWlLk6GJQsqaUBKTNV-1" source="vGRUHnTKozFpNwOfr-AK-20" target="vGRUHnTKozFpNwOfr-AK-22" edge="1">
          <mxGeometry relative="1" as="geometry" />
        </mxCell>
        <mxCell id="vGRUHnTKozFpNwOfr-AK-20" value="Snew = move the job between a,b after index b of S" style="whiteSpace=wrap;html=1;" parent="WIyWlLk6GJQsqaUBKTNV-1" vertex="1">
          <mxGeometry x="295" y="1730" width="123" height="60" as="geometry" />
        </mxCell>
        <mxCell id="vGRUHnTKozFpNwOfr-AK-21" value="" style="edgeStyle=orthogonalEdgeStyle;rounded=0;orthogonalLoop=1;jettySize=auto;html=1;" parent="WIyWlLk6GJQsqaUBKTNV-1" source="vGRUHnTKozFpNwOfr-AK-22" target="vGRUHnTKozFpNwOfr-AK-26" edge="1">
          <mxGeometry relative="1" as="geometry" />
        </mxCell>
        <mxCell id="vGRUHnTKozFpNwOfr-AK-22" value="" style="shape=waypoint;sketch=0;size=6;pointerEvents=1;points=[];fillColor=default;resizable=0;rotatable=0;perimeter=centerPerimeter;snapToPoint=1;" parent="WIyWlLk6GJQsqaUBKTNV-1" vertex="1">
          <mxGeometry x="348" y="1890" width="20" height="20" as="geometry" />
        </mxCell>
        <mxCell id="vGRUHnTKozFpNwOfr-AK-23" value="" style="edgeStyle=orthogonalEdgeStyle;rounded=0;orthogonalLoop=1;jettySize=auto;html=1;" parent="WIyWlLk6GJQsqaUBKTNV-1" source="vGRUHnTKozFpNwOfr-AK-24" target="vGRUHnTKozFpNwOfr-AK-26" edge="1">
          <mxGeometry relative="1" as="geometry" />
        </mxCell>
        <mxCell id="vGRUHnTKozFpNwOfr-AK-24" value="" style="shape=waypoint;sketch=0;size=6;pointerEvents=1;points=[];fillColor=default;resizable=0;rotatable=0;perimeter=centerPerimeter;snapToPoint=1;" parent="WIyWlLk6GJQsqaUBKTNV-1" vertex="1">
          <mxGeometry x="85" y="1890" width="20" height="20" as="geometry" />
        </mxCell>
        <mxCell id="vGRUHnTKozFpNwOfr-AK-25" value="" style="edgeStyle=orthogonalEdgeStyle;rounded=0;orthogonalLoop=1;jettySize=auto;html=1;" parent="WIyWlLk6GJQsqaUBKTNV-1" source="vGRUHnTKozFpNwOfr-AK-26" target="vGRUHnTKozFpNwOfr-AK-28" edge="1">
          <mxGeometry relative="1" as="geometry" />
        </mxCell>
        <mxCell id="vGRUHnTKozFpNwOfr-AK-26" value="" style="shape=waypoint;sketch=0;size=6;pointerEvents=1;points=[];fillColor=default;resizable=0;rotatable=0;perimeter=centerPerimeter;snapToPoint=1;" parent="WIyWlLk6GJQsqaUBKTNV-1" vertex="1">
          <mxGeometry x="215" y="1890" width="20" height="20" as="geometry" />
        </mxCell>
        <mxCell id="vGRUHnTKozFpNwOfr-AK-27" value="" style="edgeStyle=orthogonalEdgeStyle;rounded=0;orthogonalLoop=1;jettySize=auto;html=1;" parent="WIyWlLk6GJQsqaUBKTNV-1" source="vGRUHnTKozFpNwOfr-AK-28" target="vGRUHnTKozFpNwOfr-AK-31" edge="1">
          <mxGeometry relative="1" as="geometry" />
        </mxCell>
        <mxCell id="vGRUHnTKozFpNwOfr-AK-28" value="calculate the objective funtion of Snew and S&amp;nbsp;" style="whiteSpace=wrap;html=1;sketch=0;pointerEvents=1;" parent="WIyWlLk6GJQsqaUBKTNV-1" vertex="1">
          <mxGeometry x="165" y="1970" width="120" height="60" as="geometry" />
        </mxCell>
        <mxCell id="vGRUHnTKozFpNwOfr-AK-29" value="" style="edgeStyle=orthogonalEdgeStyle;rounded=0;orthogonalLoop=1;jettySize=auto;html=1;" parent="WIyWlLk6GJQsqaUBKTNV-1" source="vGRUHnTKozFpNwOfr-AK-31" target="vGRUHnTKozFpNwOfr-AK-33" edge="1">
          <mxGeometry relative="1" as="geometry" />
        </mxCell>
        <mxCell id="vGRUHnTKozFpNwOfr-AK-30" value="" style="edgeStyle=orthogonalEdgeStyle;rounded=0;orthogonalLoop=1;jettySize=auto;html=1;" parent="WIyWlLk6GJQsqaUBKTNV-1" source="vGRUHnTKozFpNwOfr-AK-31" target="vGRUHnTKozFpNwOfr-AK-36" edge="1">
          <mxGeometry relative="1" as="geometry" />
        </mxCell>
        <mxCell id="vGRUHnTKozFpNwOfr-AK-31" value="obj1 &amp;lt; obj2" style="rhombus;whiteSpace=wrap;html=1;sketch=0;pointerEvents=1;" parent="WIyWlLk6GJQsqaUBKTNV-1" vertex="1">
          <mxGeometry x="185" y="2100" width="80" height="80" as="geometry" />
        </mxCell>
        <mxCell id="vGRUHnTKozFpNwOfr-AK-32" style="edgeStyle=orthogonalEdgeStyle;rounded=0;orthogonalLoop=1;jettySize=auto;html=1;exitX=0.5;exitY=1;exitDx=0;exitDy=0;entryX=0.5;entryY=0;entryDx=0;entryDy=0;" parent="WIyWlLk6GJQsqaUBKTNV-1" source="vGRUHnTKozFpNwOfr-AK-33" target="vGRUHnTKozFpNwOfr-AK-40" edge="1">
          <mxGeometry relative="1" as="geometry">
            <Array as="points">
              <mxPoint x="60" y="2280" />
              <mxPoint x="230" y="2280" />
            </Array>
          </mxGeometry>
        </mxCell>
        <mxCell id="vGRUHnTKozFpNwOfr-AK-33" value="count+1" style="whiteSpace=wrap;html=1;sketch=0;pointerEvents=1;" parent="WIyWlLk6GJQsqaUBKTNV-1" vertex="1">
          <mxGeometry y="2110" width="120" height="60" as="geometry" />
        </mxCell>
        <mxCell id="vGRUHnTKozFpNwOfr-AK-34" value="Yes" style="text;html=1;align=center;verticalAlign=middle;resizable=0;points=[];autosize=1;strokeColor=none;fillColor=none;" parent="WIyWlLk6GJQsqaUBKTNV-1" vertex="1">
          <mxGeometry x="135" y="2118" width="40" height="30" as="geometry" />
        </mxCell>
        <mxCell id="vGRUHnTKozFpNwOfr-AK-35" value="" style="edgeStyle=orthogonalEdgeStyle;rounded=0;orthogonalLoop=1;jettySize=auto;html=1;" parent="WIyWlLk6GJQsqaUBKTNV-1" source="vGRUHnTKozFpNwOfr-AK-36" target="vGRUHnTKozFpNwOfr-AK-42" edge="1">
          <mxGeometry relative="1" as="geometry" />
        </mxCell>
        <mxCell id="vGRUHnTKozFpNwOfr-AK-36" value="S = Snew&lt;div&gt;count = 0&lt;/div&gt;" style="whiteSpace=wrap;html=1;sketch=0;pointerEvents=1;" parent="WIyWlLk6GJQsqaUBKTNV-1" vertex="1">
          <mxGeometry x="325" y="2110" width="121" height="60" as="geometry" />
        </mxCell>
        <mxCell id="vGRUHnTKozFpNwOfr-AK-37" value="" style="edgeStyle=orthogonalEdgeStyle;rounded=0;orthogonalLoop=1;jettySize=auto;html=1;" parent="WIyWlLk6GJQsqaUBKTNV-1" source="vGRUHnTKozFpNwOfr-AK-40" target="vGRUHnTKozFpNwOfr-AK-45" edge="1">
          <mxGeometry relative="1" as="geometry" />
        </mxCell>
        <mxCell id="vGRUHnTKozFpNwOfr-AK-38" value="" style="edgeStyle=orthogonalEdgeStyle;rounded=0;orthogonalLoop=1;jettySize=auto;html=1;" parent="WIyWlLk6GJQsqaUBKTNV-1" source="vGRUHnTKozFpNwOfr-AK-40" target="vGRUHnTKozFpNwOfr-AK-49" edge="1">
          <mxGeometry relative="1" as="geometry" />
        </mxCell>
        <mxCell id="vGRUHnTKozFpNwOfr-AK-39" value="No" style="edgeLabel;html=1;align=center;verticalAlign=middle;resizable=0;points=[];" parent="vGRUHnTKozFpNwOfr-AK-38" vertex="1" connectable="0">
          <mxGeometry x="0.0444" y="2" relative="1" as="geometry">
            <mxPoint as="offset" />
          </mxGeometry>
        </mxCell>
        <mxCell id="vGRUHnTKozFpNwOfr-AK-40" value="count&amp;lt;maxCount" style="rhombus;whiteSpace=wrap;html=1;" parent="WIyWlLk6GJQsqaUBKTNV-1" vertex="1">
          <mxGeometry x="145" y="2320" width="170" height="80" as="geometry" />
        </mxCell>
        <mxCell id="vGRUHnTKozFpNwOfr-AK-41" value="" style="edgeStyle=orthogonalEdgeStyle;rounded=0;orthogonalLoop=1;jettySize=auto;html=1;" parent="WIyWlLk6GJQsqaUBKTNV-1" source="vGRUHnTKozFpNwOfr-AK-42" target="vGRUHnTKozFpNwOfr-AK-43" edge="1">
          <mxGeometry relative="1" as="geometry" />
        </mxCell>
        <mxCell id="vGRUHnTKozFpNwOfr-AK-42" value="" style="shape=waypoint;sketch=0;size=6;pointerEvents=1;points=[];fillColor=default;resizable=0;rotatable=0;perimeter=centerPerimeter;snapToPoint=1;" parent="WIyWlLk6GJQsqaUBKTNV-1" vertex="1">
          <mxGeometry x="375.5" y="2270" width="20" height="20" as="geometry" />
        </mxCell>
        <mxCell id="vGRUHnTKozFpNwOfr-AK-43" value="" style="shape=waypoint;sketch=0;size=6;pointerEvents=1;points=[];fillColor=default;resizable=0;rotatable=0;perimeter=centerPerimeter;snapToPoint=1;" parent="WIyWlLk6GJQsqaUBKTNV-1" vertex="1">
          <mxGeometry x="220" y="2270" width="20" height="20" as="geometry" />
        </mxCell>
        <mxCell id="vGRUHnTKozFpNwOfr-AK-44" value="" style="edgeStyle=orthogonalEdgeStyle;rounded=0;orthogonalLoop=1;jettySize=auto;html=1;" parent="WIyWlLk6GJQsqaUBKTNV-1" source="vGRUHnTKozFpNwOfr-AK-45" target="vGRUHnTKozFpNwOfr-AK-47" edge="1">
          <mxGeometry relative="1" as="geometry">
            <Array as="points">
              <mxPoint x="605" y="2360" />
            </Array>
          </mxGeometry>
        </mxCell>
        <mxCell id="vGRUHnTKozFpNwOfr-AK-45" value="" style="shape=waypoint;sketch=0;size=6;pointerEvents=1;points=[];fillColor=default;resizable=0;rotatable=0;perimeter=centerPerimeter;snapToPoint=1;" parent="WIyWlLk6GJQsqaUBKTNV-1" vertex="1">
          <mxGeometry x="595" y="2350" width="20" height="20" as="geometry" />
        </mxCell>
        <mxCell id="vGRUHnTKozFpNwOfr-AK-46" value="" style="edgeStyle=orthogonalEdgeStyle;rounded=0;orthogonalLoop=1;jettySize=auto;html=1;" parent="WIyWlLk6GJQsqaUBKTNV-1" source="vGRUHnTKozFpNwOfr-AK-47" target="vGRUHnTKozFpNwOfr-AK-48" edge="1">
          <mxGeometry relative="1" as="geometry" />
        </mxCell>
        <mxCell id="vGRUHnTKozFpNwOfr-AK-47" value="" style="shape=waypoint;sketch=0;size=6;pointerEvents=1;points=[];fillColor=default;resizable=0;rotatable=0;perimeter=centerPerimeter;snapToPoint=1;" parent="WIyWlLk6GJQsqaUBKTNV-1" vertex="1">
          <mxGeometry x="595" y="1150" width="20" height="20" as="geometry" />
        </mxCell>
        <mxCell id="vGRUHnTKozFpNwOfr-AK-48" value="" style="shape=waypoint;sketch=0;size=6;pointerEvents=1;points=[];fillColor=default;resizable=0;rotatable=0;perimeter=centerPerimeter;snapToPoint=1;" parent="WIyWlLk6GJQsqaUBKTNV-1" vertex="1">
          <mxGeometry x="205" y="1150" width="20" height="20" as="geometry" />
        </mxCell>
        <mxCell id="vGRUHnTKozFpNwOfr-AK-49" value="output S" style="whiteSpace=wrap;html=1;" parent="WIyWlLk6GJQsqaUBKTNV-1" vertex="1">
          <mxGeometry x="170" y="2490" width="120" height="60" as="geometry" />
        </mxCell>
        <mxCell id="9aWNYREooH2YM8A3fIOk-7" style="edgeStyle=orthogonalEdgeStyle;rounded=0;orthogonalLoop=1;jettySize=auto;html=1;entryX=1;entryY=0.5;entryDx=0;entryDy=0;" parent="WIyWlLk6GJQsqaUBKTNV-1" source="9aWNYREooH2YM8A3fIOk-4" target="mFVgC_a7lOUEPspSMt6H-17" edge="1">
          <mxGeometry relative="1" as="geometry">
            <mxPoint x="130" y="20" as="targetPoint" />
          </mxGeometry>
        </mxCell>
        <mxCell id="9aWNYREooH2YM8A3fIOk-4" value="" style="shape=waypoint;sketch=0;size=6;pointerEvents=1;points=[];fillColor=default;resizable=0;rotatable=0;perimeter=centerPerimeter;snapToPoint=1;rounded=1;" parent="WIyWlLk6GJQsqaUBKTNV-1" vertex="1">
          <mxGeometry x="660" y="10" width="20" height="20" as="geometry" />
        </mxCell>
        <mxCell id="VuKZPy3ZX8ouI7lNRXXI-1" style="edgeStyle=orthogonalEdgeStyle;rounded=0;orthogonalLoop=1;jettySize=auto;html=1;entryX=0.461;entryY=0.006;entryDx=0;entryDy=0;entryPerimeter=0;" parent="WIyWlLk6GJQsqaUBKTNV-1" source="WksAsrJl7JaoRQt0sNs6-7" target="WksAsrJl7JaoRQt0sNs6-14" edge="1">
          <mxGeometry relative="1" as="geometry" />
        </mxCell>
      </root>
    </mxGraphModel>
  </diagram>
</mxfile>
